<?xml version="1.0" encoding="UTF-8"?>
<svg width="550px" height="96px" viewBox="0 0 550 96" version="1.1" xmlns="http://www.w3.org/2000/svg" xmlns:xlink="http://www.w3.org/1999/xlink">
    <!-- Generator: sketchtool 50.2 (55047) - http://www.bohemiancoding.com/sketch -->
    <title>A214B2F1-6EED-4087-820A-BFCA5C3BB14E</title>
    <desc>Created with sketchtool.</desc>
    <defs></defs>
    <g id="Symbols" stroke="none" stroke-width="1" fill="none" fill-rule="evenodd">
        <g id="logos/white" fill="#FFFFFF">
            <g>
                <path d="M38.873,73.5601 C38.873,76.0861 38.394,78.4971 37.437,80.7941 C36.479,83.0911 35.159,85.1001 33.476,86.8221 C31.791,88.5451 29.82,89.9231 27.562,90.9561 C25.304,91.9901 22.873,92.5061 20.271,92.5061 C18.05,92.5061 15.793,92.2001 13.497,91.5881 C11.2,90.9761 9.133,89.9231 7.296,88.4301 C5.458,86.9371 3.946,84.9671 2.76,82.5171 C1.572,80.0671 0.98,76.9671 0.98,73.2161 L0.98,28.2041 C0.98,25.5251 1.44,23.0371 2.358,20.7401 C3.277,18.4441 4.578,16.4541 6.262,14.7691 C7.945,13.0861 9.955,11.7661 12.29,10.8081 C14.625,9.8521 17.208,9.3721 20.041,9.3721 C22.72,9.3721 25.208,9.8521 27.505,10.8081 C29.802,11.7661 31.791,13.1041 33.476,14.8271 C35.159,16.5491 36.479,18.6161 37.437,21.0271 C38.394,23.4381 38.873,26.0611 38.873,28.8931 L38.873,33.4861 L27.161,33.4861 L27.161,29.5821 C27.161,27.2851 26.509,25.2951 25.208,23.6111 C23.906,21.9281 22.146,21.0851 19.927,21.0851 C17.017,21.0851 15.084,21.9851 14.128,23.7831 C13.17,25.5821 12.692,27.8591 12.692,30.6151 L12.692,72.4121 C12.692,74.7861 13.209,76.7751 14.243,78.3831 C15.276,79.9901 17.131,80.7941 19.812,80.7941 C20.576,80.7941 21.399,80.6611 22.281,80.3921 C23.16,80.1251 23.963,79.6851 24.692,79.0721 C25.418,78.4601 26.012,77.6191 26.472,76.5451 C26.931,75.4751 27.161,74.1341 27.161,72.5271 L27.161,68.5081 L38.873,68.5081 L38.873,73.5601 Z" id="Fill-1"></path>
                <path d="M66.3159,33.6006 L66.0869,33.6006 L60.3449,63.2256 L72.0569,63.2256 L66.3159,33.6006 Z M61.3789,10.0616 L71.1389,10.0616 L89.3959,91.8176 L77.6839,91.8176 L74.2389,74.2486 L58.2779,74.2486 L54.8339,91.8176 L43.1209,91.8176 L61.3789,10.0616 Z" id="Fill-3"></path>
                <polygon id="Fill-5" points="93.874 10.0615 105.127 10.0615 120.169 53.3505 120.399 53.3505 135.326 10.0615 146.694 10.0615 146.694 91.8175 134.981 91.8175 134.981 42.0975 134.752 42.0975 123.154 77.2345 117.298 77.2345 105.816 42.0975 105.586 42.0975 105.586 91.8175 93.874 91.8175"></polygon>
                <path d="M169.4287,48.8726 L175.0547,48.8726 C177.4277,48.8726 179.2647,48.5286 180.5667,47.8396 C181.8677,47.1506 182.8247,46.2136 183.4377,45.0256 C184.0497,43.8396 184.4137,42.4046 184.5287,40.7196 C184.6437,39.0376 184.7007,37.1606 184.7007,35.0936 C184.7007,33.1806 184.6437,31.3616 184.5287,29.6396 C184.4137,27.9166 184.0697,26.4246 183.4947,25.1616 C182.9207,23.8976 182.0207,22.9036 180.7967,22.1756 C179.5717,21.4486 177.8107,21.0846 175.5147,21.0846 L169.4287,21.0846 L169.4287,48.8726 Z M157.7167,10.0616 L175.2847,10.0616 C178.4997,10.0616 181.3317,10.4826 183.7827,11.3246 C186.2307,12.1676 188.4507,13.6606 190.4417,15.8026 C192.4317,17.9466 193.8097,20.4536 194.5757,23.3236 C195.3397,26.1946 195.7237,30.0806 195.7237,34.9786 C195.7237,38.5776 195.5117,41.6586 195.0927,44.2226 C194.6707,46.7876 193.7717,49.1796 192.3937,51.3986 C190.7867,54.0796 188.6427,56.1646 185.9637,57.6566 C183.2827,59.1496 179.7627,59.8956 175.3997,59.8956 L169.4287,59.8956 L169.4287,91.8176 L157.7167,91.8176 L157.7167,10.0616 Z" id="Fill-7"></path>
                <path d="M377.3696,73.5601 C377.3696,76.0861 376.8906,78.4971 375.9336,80.7941 C374.9756,83.0911 373.6556,85.1001 371.9726,86.8221 C370.2876,88.5451 368.3166,89.9231 366.0586,90.9561 C363.8006,91.9901 361.3696,92.5061 358.7676,92.5061 C356.5466,92.5061 354.2896,92.2001 351.9936,91.5881 C349.6966,90.9761 347.6296,89.9231 345.7926,88.4301 C343.9546,86.9371 342.4426,84.9671 341.2566,82.5171 C340.0686,80.0671 339.4766,76.9671 339.4766,73.2161 L339.4766,28.2041 C339.4766,25.5251 339.9366,23.0371 340.8546,20.7401 C341.7736,18.4441 343.0746,16.4541 344.7586,14.7691 C346.4416,13.0861 348.4516,11.7661 350.7866,10.8081 C353.1216,9.8521 355.7046,9.3721 358.5376,9.3721 C361.2166,9.3721 363.7046,9.8521 366.0016,10.8081 C368.2986,11.7661 370.2876,13.1041 371.9726,14.8271 C373.6556,16.5491 374.9756,18.6161 375.9336,21.0271 C376.8906,23.4381 377.3696,26.0611 377.3696,28.8931 L377.3696,33.4861 L365.6576,33.4861 L365.6576,29.5821 C365.6576,27.2851 365.0056,25.2951 363.7046,23.6111 C362.4026,21.9281 360.6426,21.0851 358.4236,21.0851 C355.5136,21.0851 353.5806,21.9851 352.6246,23.7831 C351.6666,25.5821 351.1886,27.8591 351.1886,30.6151 L351.1886,72.4121 C351.1886,74.7861 351.7056,76.7751 352.7396,78.3831 C353.7726,79.9901 355.6276,80.7941 358.3086,80.7941 C359.0726,80.7941 359.8956,80.6611 360.7776,80.3921 C361.6566,80.1251 362.4596,79.6851 363.1886,79.0721 C363.9146,78.4601 364.5086,77.6191 364.9686,76.5451 C365.4276,75.4751 365.6576,74.1341 365.6576,72.5271 L365.6576,68.5081 L377.3696,68.5081 L377.3696,73.5601 Z" id="Fill-9"></path>
                <path d="M398.6118,46.5762 L405.2718,46.5762 C407.3388,46.5762 408.9838,46.2892 410.2098,45.7152 C411.4328,45.1402 412.3718,44.3192 413.0228,43.2462 C413.6728,42.1752 414.1128,40.8542 414.3428,39.2842 C414.5728,37.7162 414.6878,35.8972 414.6878,33.8302 C414.6878,31.7632 414.5728,29.9462 414.3428,28.3762 C414.1128,26.8082 413.6338,25.4682 412.9078,24.3572 C412.1788,23.2482 411.1658,22.4252 409.8648,21.8892 C408.5628,21.3542 406.8398,21.0852 404.6978,21.0852 L398.6118,21.0852 L398.6118,46.5762 Z M386.8998,10.0612 L405.7318,10.0612 C419.5098,10.0612 426.3998,18.0612 426.3998,34.0602 C426.3998,38.8072 425.6538,42.8842 424.1608,46.2892 C422.6678,49.6962 420.0448,52.4322 416.2958,54.4992 L428.9258,91.8172 L416.5248,91.8172 L405.6158,56.9102 L398.6118,56.9102 L398.6118,91.8172 L386.8998,91.8172 L386.8998,10.0612 Z" id="Fill-11"></path>
                <path d="M453.7275,33.6006 L453.4985,33.6006 L447.7565,63.2256 L459.4685,63.2256 L453.7275,33.6006 Z M448.7905,10.0616 L458.5505,10.0616 L476.8075,91.8176 L465.0955,91.8176 L461.6505,74.2486 L445.6895,74.2486 L442.2455,91.8176 L430.5325,91.8176 L448.7905,10.0616 Z" id="Fill-13"></path>
                <polygon id="Fill-15" points="483.9277 21.085 470.3787 21.085 470.3787 10.062 509.1897 10.062 509.1897 21.085 495.6397 21.085 495.6397 91.817 483.9277 91.817"></polygon>
                <polygon id="Fill-17" points="514.355 10.0615 549.262 10.0615 549.262 21.0845 526.067 21.0845 526.067 45.0835 546.276 45.0835 546.276 56.1065 526.067 56.1065 526.067 80.1045 549.262 80.1045 549.262 91.8175 514.355 91.8175"></polygon>
                <path d="M301.3496,88.2526 C301.3656,88.1256 301.3936,88.0016 301.3936,87.8706 L301.3936,45.9616 L320.6726,29.9926 L320.6726,88.2526 L301.3496,88.2526 Z M264.5856,88.2526 L250.3356,88.2526 L264.5856,76.4486 L264.5856,88.2526 Z M272.4846,69.9066 L293.5066,52.4946 L293.5066,87.8706 C293.5066,88.0016 293.5336,88.1256 293.5506,88.2526 L272.4726,88.2526 L272.4726,71.0026 L272.4846,69.9066 Z M213.7536,80.1256 L302.7366,9.1496 L304.2916,7.7506 L320.6726,7.7506 L320.6726,20.4916 L238.8656,88.2526 L213.7536,88.2526 L213.7536,80.1256 Z M237.4166,7.7506 L237.4166,51.0696 L237.4106,51.9186 L213.7536,70.7886 L213.7536,7.7506 L237.4166,7.7506 Z M271.5946,7.7506 L292.7836,7.7506 L271.5946,24.6516 L271.5946,7.7506 Z M245.3036,45.6226 L245.3036,7.7506 L263.7076,7.7506 L263.7076,30.9436 L245.3036,45.6226 Z M324.6166,0.8506 L209.8106,0.8506 C207.6326,0.8506 205.8666,2.3956 205.8666,4.3006 L205.8666,91.7026 C205.8666,93.6076 207.6326,95.1526 209.8106,95.1526 L324.6166,95.1526 C326.7936,95.1526 328.5606,93.6076 328.5606,91.7026 L328.5606,4.3006 C328.5606,2.3956 326.7936,0.8506 324.6166,0.8506 Z" id="Fill-19"></path>
            </g>
        </g>
    </g>
</svg>